<?xml version="1.0" encoding="UTF-8"?>
<svg id="Layer_1" data-name="Layer 1" xmlns="http://www.w3.org/2000/svg" viewBox="0 0 1080 589">
  <defs>
    <style>
      .cls-1 {
        fill: #fff;
      }

      .cls-1, .cls-2 {
        stroke-width: 0px;
      }

      .cls-2 {
        fill: #00aeef;
      }
    </style>
  </defs>
  <g>
    <path class="cls-1" d="m508.41,30.54h29.73v9.09c4.96-5.78,15.36-11.07,24.45-11.07v28.41c-1.49-.5-3.96-.83-6.77-.83-6.28,0-14.37,1.65-17.67,5.62v48.56h-29.73V30.54Z"/>
    <path class="cls-1" d="m626.68,101.41c-4.63,5.12-13.38,10.9-27.42,10.9-18.5,0-26.43-11.07-26.43-24.78V30.54h29.73v44.27c0,8.09,4.29,11.23,11.56,11.23,6.61,0,10.08-3.47,12.55-6.28V30.54h29.73v79.78h-29.73v-8.92Z"/>
    <path class="cls-1" d="m672.92,30.54h29.73v9.09c4.96-5.78,15.36-11.07,24.45-11.07v28.41c-1.49-.5-3.96-.83-6.77-.83-6.28,0-14.37,1.65-17.67,5.62v48.56h-29.73V30.54Z"/>
    <path class="cls-1" d="m789.54,101.9c-6.77,7.6-14.37,10.41-22.47,10.41-19.33,0-35.18-14.54-35.18-41.96s15.53-41.79,35.18-41.79c8.09,0,16.19,2.81,22.47,10.41v-8.42h29.73v79.78h-29.73v-8.42Zm0-41.63c-2.81-3.47-8.42-5.29-12.39-5.29-8.09,0-14.87,5.45-14.87,15.36s6.77,15.69,14.87,15.69c3.96,0,9.58-1.98,12.39-5.45v-20.32Z"/>
    <path class="cls-1" d="m835.78.15h29.73v110.18h-29.73V.15Z"/>
    <path class="cls-1" d="m513.53,228.81c6.28,4.96,19.82,10.08,28.74,10.08,6.11,0,7.93-1.65,7.93-3.8,0-2.64-3.63-3.63-11.23-4.63-13.38-1.82-34.03-4.29-34.03-25.93,0-14.37,12.55-27.26,35.68-27.26,13.38,0,25.27,4.13,34.52,10.24l-10.9,19.33c-4.96-4.13-14.21-8.26-23.46-8.26-4.29,0-7.43,1.16-7.43,3.47s2.31,3.3,10.24,4.46c13.38,1.98,35.02,4.79,35.02,27.09,0,15.86-14.21,27.42-37.83,27.42-14.7,0-30.56-5.12-39.15-12.22l11.89-19.99Z"/>
    <path class="cls-1" d="m628.66,177.28c18.17,0,29.4,8.26,33.86,15.03l-19.16,18.01c-2.48-3.8-7.1-6.77-13.38-6.77-8.42,0-15.69,5.29-15.69,15.53s7.27,15.69,15.69,15.69c6.28,0,10.9-3.3,13.38-6.94l19.16,18.17c-4.46,6.61-15.69,15.03-33.86,15.03-25.27,0-44.77-16.52-44.77-41.96s19.49-41.79,44.77-41.79Z"/>
    <path class="cls-1" d="m726.44,214.61c0-8.26-4.46-11.07-11.56-11.07s-10.24,3.47-12.72,6.28v49.23h-29.73v-110.18h29.73v39.48c4.63-5.29,13.38-11.07,27.42-11.07,18.5,0,26.59,10.9,26.59,24.78v56.99h-29.73v-44.43Z"/>
    <path class="cls-1" d="m767.23,219.07c0-22.3,16.52-41.79,44.77-41.79s44.93,19.49,44.93,41.79-16.52,41.96-44.93,41.96-44.77-19.66-44.77-41.96Zm59.14,0c0-8.75-5.12-15.53-14.37-15.53s-14.21,6.77-14.21,15.53,5.12,15.69,14.21,15.69,14.37-6.77,14.37-15.69Z"/>
    <path class="cls-1" d="m862.54,219.07c0-22.3,16.52-41.79,44.77-41.79s44.93,19.49,44.93,41.79-16.52,41.96-44.93,41.96-44.77-19.66-44.77-41.96Zm59.14,0c0-8.75-5.12-15.53-14.37-15.53s-14.21,6.77-14.21,15.53,5.12,15.69,14.21,15.69,14.37-6.77,14.37-15.69Z"/>
    <path class="cls-1" d="m963.3,148.86h29.73v110.18h-29.73v-110.18Z"/>
    <path class="cls-1" d="m1014.67,228.81c6.28,4.96,19.82,10.08,28.74,10.08,6.11,0,7.93-1.65,7.93-3.8,0-2.64-3.63-3.63-11.23-4.63-13.38-1.82-34.03-4.29-34.03-25.93,0-14.37,12.55-27.26,35.68-27.26,13.38,0,25.27,4.13,34.52,10.24l-10.9,19.33c-4.96-4.13-14.21-8.26-23.46-8.26-4.3,0-7.43,1.16-7.43,3.47s2.31,3.3,10.24,4.46c13.38,1.98,35.02,4.79,35.02,27.09,0,15.86-14.21,27.42-37.83,27.42-14.7,0-30.56-5.12-39.15-12.22l11.89-19.99Z"/>
    <path class="cls-2" d="m566.55,363.16l-12.88,44.6h-32.38l-23.13-79.78h30.56l10.57,43.94,14.04-43.94h26.59l13.88,43.94,10.57-43.94h30.72l-23.13,79.78h-32.38l-13.05-44.6Z"/>
    <path class="cls-2" d="m693.57,399.34c-6.77,7.6-14.37,10.41-22.47,10.41-19.33,0-35.18-14.54-35.18-41.96s15.53-41.79,35.18-41.79c8.09,0,16.19,2.81,22.47,10.41v-8.42h29.73v79.78h-29.73v-8.42Zm0-41.63c-2.81-3.47-8.42-5.29-12.39-5.29-8.09,0-14.87,5.45-14.87,15.36s6.77,15.69,14.87,15.69c3.96,0,9.58-1.98,12.39-5.45v-20.32Z"/>
    <path class="cls-2" d="m745.93,384.63v-30.89h-13.21v-25.77h13.21v-21.8h29.73v21.8h16.19v25.77h-16.19v22.3c0,4.13,2.64,7.43,6.61,7.43,2.64,0,5.29-.83,5.95-1.49l5.29,22.47c-3.14,2.81-10.08,5.29-20.15,5.29-17.67,0-27.42-8.42-27.42-25.11Z"/>
    <path class="cls-2" d="m840.9,325.99c23.46,0,41.46,16.85,41.46,44.93v6.11h-54.18c1.65,5.12,7.43,10.08,17.51,10.08,6.77,0,14.04-2.48,18.01-5.62l12.22,18.34c-7.93,6.77-22.13,9.91-34.03,9.91-24.94,0-44.43-15.69-44.43-41.96,0-23.13,17.67-41.79,43.44-41.79Zm-13.05,32.21h26.26c-.83-3.47-3.63-9.58-13.21-9.58-9.09,0-12.06,5.95-13.05,9.58Z"/>
    <path class="cls-2" d="m892.6,327.97h29.73v9.09c4.96-5.78,15.36-11.07,24.45-11.07v28.41c-1.49-.5-3.96-.83-6.77-.83-6.28,0-14.37,1.65-17.67,5.62v48.56h-29.73v-79.78Z"/>
    <path class="cls-1" d="m508.41,586.87v-110.18h29.73v8.42c6.44-7.6,14.21-10.41,22.47-10.41,19.82,0,35.02,14.54,35.02,41.79s-15.2,41.96-35.02,41.96c-8.26,0-15.86-2.81-22.47-10.41v38.82h-29.73Zm41.96-85.9c-3.8,0-9.42,1.98-12.22,5.45v20.32c2.64,3.3,8.42,5.45,12.22,5.45,7.93,0,14.87-5.62,14.87-15.69s-6.94-15.53-14.87-15.53Z"/>
    <path class="cls-1" d="m606.68,476.69h29.73v9.09c4.96-5.78,15.36-11.07,24.45-11.07v28.41c-1.49-.5-3.96-.83-6.77-.83-6.28,0-14.37,1.65-17.67,5.62v48.56h-29.73v-79.78Z"/>
    <path class="cls-1" d="m665.65,516.5c0-22.3,16.52-41.79,44.77-41.79s44.93,19.49,44.93,41.79-16.52,41.96-44.93,41.96-44.77-19.66-44.77-41.96Zm59.14,0c0-8.75-5.12-15.53-14.37-15.53s-14.21,6.77-14.21,15.53,5.12,15.69,14.21,15.69,14.37-6.77,14.37-15.69Z"/>
    <path class="cls-1" d="m796.14,553.01c0,20.48-10.08,35.85-33.2,35.85-3.8,0-6.77-.17-9.25-.66v-23.95c1.65.33,2.97.33,3.96.33,5.45,0,8.75-3.96,8.75-11.56v-76.32h29.73v76.32Zm-31.55-101.26c0-9.25,7.43-16.68,16.68-16.68s16.68,7.43,16.68,16.68-7.43,16.68-16.68,16.68-16.68-7.43-16.68-16.68Z"/>
    <path class="cls-1" d="m850.65,474.71c23.46,0,41.46,16.85,41.46,44.93v6.11h-54.18c1.65,5.12,7.43,10.08,17.51,10.08,6.77,0,14.04-2.48,18.01-5.62l12.22,18.34c-7.93,6.77-22.13,9.91-34.03,9.91-24.94,0-44.43-15.69-44.43-41.96,0-23.13,17.67-41.79,43.44-41.79Zm-13.05,32.21h26.26c-.83-3.47-3.63-9.58-13.21-9.58-9.09,0-12.06,5.95-13.05,9.58Z"/>
    <path class="cls-1" d="m941.66,474.71c18.17,0,29.4,8.26,33.86,15.03l-19.16,18.01c-2.48-3.8-7.1-6.77-13.38-6.77-8.42,0-15.69,5.29-15.69,15.53s7.27,15.69,15.69,15.69c6.28,0,10.9-3.3,13.38-6.94l19.16,18.17c-4.46,6.61-15.69,15.03-33.86,15.03-25.27,0-44.77-16.52-44.77-41.96s19.49-41.79,44.77-41.79Z"/>
    <path class="cls-1" d="m991.38,533.35v-30.89h-13.21v-25.77h13.21v-21.8h29.73v21.8h16.19v25.77h-16.19v22.3c0,4.13,2.64,7.43,6.61,7.43,2.64,0,5.29-.83,5.95-1.49l5.29,22.47c-3.14,2.81-10.08,5.29-20.15,5.29-17.67,0-27.42-8.42-27.42-25.11Z"/>
  </g>
  <path class="cls-2" d="m169.86,372.83c-8.18-5.89-32.54-35.28-38.96-41.81-6.34-6.45-13.15-16.91-23.26-8.04-8.11,7.11-.87,15.85,3.8,22.34,10.4,14.45,21.75,28.22,32.68,42.29,3.63,4.68,9.14,10.35,5.98,15.87-3.99,6.49-11.1,5.44-17.16,4.68-10.41-1.29-26.08-4.4-31.05-5.09s-21.59-6.16-23.99,6.17c-1.9,9.76,10.2,10.47,18.33,12.6,13.16,3.44,26.16,7.59,39,12.1,21.29,7.48,35.94,22.24,40.07,44.28,5.2,27.69,7.62,55.88,12.01,83.74,3.34,21.21-7,25.1-25.22,22.89C88.97,575.99,15.44,502.42,3.37,429.23c-7.08-42.97-2.25-82.99,15.83-122.1C65.61,206.71,133.7,120.43,199.89,27.97c68.24,96.53,140.53,186.03,186.21,292.97,36.81,86.18-3.75,193.3-80.97,237.36-7.03,4.01-15.25,8.87-22.11,12-5.56,2.53-11.8,2.42-14.14-3.22-12.72-30.61-17.02-59.74-23.61-90.7-2.55-11.97.31-20.63,10.25-30.19,20.31-19.52,37.8-41.97,56.36-63.28,5.65-6.49,11.89-13.42,2.12-21.2-8.05-6.41-14.85-3.09-22.48,2.58-12.65,9.4-19.8,32.78-39.85,24.31-20.32-8.58-27.88-82.37-31.83-98.57-1.49-6.11-2.88-13.19-11.22-12.66-11.42.73-8.85,10.3-8.47,16.77,1.11,18.7,5.41,61.64,5.47,63.73.05,5.09-2.77,5.23-4.54,1.35-6.26-12.83-17.31-50.59-22.34-61.37-3.68-7.89-4.85-22.7-16.53-19.26-13.71,4.04-6.22,17.41-4.11,26.8,0,0,13.66,53.7,16.38,63.61,1.21,3.7-1.2,6.2-4.63,3.85Z"/>
</svg>